<?xml version="1.0" encoding="UTF-8"?>
<svg id="Layer_1" data-name="Layer 1" xmlns="http://www.w3.org/2000/svg" viewBox="0 0 212.6 212.6">
  <defs>
    <style>
      .cls-1 {
        fill: #dfd6c1;
        stroke-width: 0px;
      }
    </style>
  </defs>
  <path class="cls-1" d="M124.37,167.43c-5.31.99-9.17-.39-13.64-2-1.55-.56-3.16-1.13-4.94-1.66-.35-.1-.7-.21-1.05-.32-2.6-.8-5.28-1.61-7.93-.95-2.17.55-3.27,2.12-4.43,3.78-.26.38-.53.76-.82,1.15-.21.29-.42.59-.63.9-1.35,2-2.88,4.26-9.16,5.59-.14.03-.22.16-.19.3.02.12.13.2.25.2.02,0,.04,0,.05,0,6.47-1.37,8.14-3.83,9.47-5.8.2-.3.4-.6.62-.88.29-.39.56-.78.83-1.16,1.16-1.66,2.15-3.08,4.14-3.58,2.5-.63,5.12.17,7.66.94.35.11.7.21,1.05.32,1.77.52,3.37,1.09,4.91,1.65,4.53,1.63,8.45,3.03,13.9,2.02.14-.03.23-.16.2-.29-.02-.14-.16-.23-.29-.2Z"/>
  <path class="cls-1" d="M118.58,170.97c-1.85.43-4,.23-6.4-.62-1.36-.48-2.68-1.11-3.96-1.72-.7-.33-1.4-.67-2.11-.98-1.73-.76-4.02-1.63-6.46-1.63h-.06c-1,0-1.81.17-2.48.5-1.12.56-1.81,1.58-2.2,2.33l-.04.08c-2.5,4.92-4.22,6.16-5.02,6.46-.13.05-.2.19-.15.32.04.1.13.16.24.16.03,0,.06,0,.09-.02,1.52-.57,3.35-2.89,5.29-6.7l.04-.08c.35-.69.98-1.61,1.97-2.11.6-.3,1.34-.45,2.26-.45h.06c2.34,0,4.57.85,6.25,1.59.7.31,1.4.64,2.09.97,1.29.62,2.63,1.25,4.01,1.74,2.49.88,4.74,1.09,6.69.63.14-.03.22-.17.19-.3-.03-.13-.17-.23-.3-.19Z"/>
  <path class="cls-1" d="M106.18,170.39c-.5,1-2.15.54-3.9.06-1.98-.55-4.03-1.12-5.14.14-.09.1-.08.26.02.35.11.1.26.08.35-.02.91-1.02,2.8-.5,4.63.01,1.02.28,2.02.56,2.83.56.73,0,1.33-.23,1.66-.87.06-.12.01-.28-.11-.34-.12-.06-.27-.02-.34.11Z"/>
  <path class="cls-1" d="M37.62,98.07c5.44.95,9.73,2.4,13.88,3.8,5.68,1.92,10.85,3.67,17.74,3.67,3.47,0,7.39-.44,12.02-1.54l3.2-.75c17.92-4.23,22.73-5.37,28.59-3.06.77.3,1.46.59,2.1.85,4.5,1.86,6.18,2.55,11.95-.05,3.41-1.54,7.23-.91,11.64-.19,3.78.62,8.07,1.32,12.87.75,10.22-1.23,15.21-3.01,15.25-3.02.13-.05.2-.19.15-.32s-.19-.2-.32-.15c-.05.02-4.98,1.78-15.14,3-4.72.57-8.97-.13-12.73-.74-4.49-.74-8.38-1.38-11.93.23-5.57,2.51-7.08,1.89-11.55.05-.64-.26-1.33-.55-2.11-.86-6-2.37-10.85-1.23-28.89,3.04l-3.2.76c-13.69,3.23-21.01.75-29.48-2.12-4.17-1.41-8.48-2.87-13.96-3.82-16.7-2.9-20.68,2.68-20.85,2.92-.08.12-.05.27.07.35.11.08.27.05.35-.07,0-.01.99-1.4,3.96-2.42,2.76-.95,7.84-1.77,16.38-.28Z"/>
  <path class="cls-1" d="M32.36,130.78c1.56,7.92,12.9,11.59,18.25,11.59.16,0,.31,0,.46,0,.13,0,.26,0,.39,0,4.9,0,7.92,4.08,12.56,7.17.69.46,1.26.66,1.74.66,2.85,0,2.49-7.22,3.98-12.14,1.74-5.75,26.82-11.08,35.25-12.05,8.43-.96,19.36-6.62,35.43-7.36,16.07-.73,21.49-7.93,24.61-10.67,2.32-2.03,2.21-3.61-1.53-3.61-1.29,0-3.02.19-5.23.61-1.59.31-3.23.42-4.9.42-5.52,0-11.32-1.28-16.68-1.28-1.76,0-3.48.14-5.12.51-2.64.59-5.3.84-8.01.84-5.64,0-11.43-1.06-17.43-2.2-.93-.18-1.79-.26-2.59-.26-6.83,0-9.91,5.83-26.82,7.31-1.43.13-2.9.18-4.39.18-17.96,0-39.61-8.36-45.37-8.36-.09,0-.17,0-.25,0-5.8.28-2.2,5.57-2.2,5.57,7.45,7.08,6.23,14.92,7.84,23.07ZM24.09,103.78c.34-.68,1.23-1.07,2.65-1.14.07,0,.15,0,.23,0,2.02,0,6.18,1.09,11.44,2.48,9.46,2.48,22.41,5.89,33.93,5.89,1.54,0,3.03-.06,4.43-.18,10-.87,15.31-3.3,19.19-5.08,2.72-1.25,4.87-2.23,7.59-2.23.8,0,1.61.08,2.5.25,6.58,1.25,12.05,2.21,17.53,2.21,2.92,0,5.58-.28,8.12-.85,1.48-.33,3.12-.5,5.01-.5,2.63,0,5.45.32,8.17.63,2.81.32,5.71.65,8.52.65,1.84,0,3.48-.14,4.99-.43,2.09-.4,3.82-.6,5.14-.6,1.69,0,2.43.35,2.55.67.12.32-.17,1.02-1.35,2.05-.38.33-.78.72-1.24,1.16-3.4,3.27-9.09,8.75-23.07,9.39-10,.46-18.14,2.84-24.67,4.76-4.09,1.2-7.63,2.24-10.8,2.6-6.73.77-33.75,6.02-35.67,12.4-.51,1.7-.8,3.62-1.09,5.48-.49,3.25-.96,6.31-2.41,6.31-.39,0-.88-.2-1.46-.58-1.33-.89-2.53-1.86-3.69-2.8-2.83-2.29-5.5-4.46-9.15-4.46-.14,0-.27,0-.41,0-.14,0-.29,0-.44,0-5.58,0-16.29-3.74-17.76-11.19-.38-1.95-.61-3.91-.83-5.81-.71-6.17-1.38-12-7.12-17.49-.44-.67-1.37-2.5-.81-3.61Z"/>
  <path class="cls-1" d="M42.04,131.27c2.03,3.45,5.02,4.71,8.26,4.71,5.16,0,10.92-3.24,14.26-6.01,5.43-4.51,20.12-8.26,28.57-9,8.45-.74,26.74-1.67,32.23-5.51,5.49-3.84-1.12-2.59-13.12-4.01-1.4-.16-2.82-.24-4.26-.24-10.97,0-23.39,4.3-38.46,6.22-1.83.23-3.58.34-5.25.34-13.94,0-22.53-7.24-26.8-8.07-.35-.07-.65-.1-.9-.1-3.24,0,.67,5.05.67,5.05,5.54,4.45,1.13,7.74,4.81,16.61ZM35.83,110.37c.08-.17.33-.26.73-.26.23,0,.5.03.81.09,1.22.24,2.87,1.05,4.95,2.08,4.82,2.39,12.1,5.99,21.95,5.99,1.75,0,3.53-.11,5.31-.34,6.42-.81,12.25-2.04,17.9-3.22,7.33-1.54,14.25-2.99,20.5-2.99,1.46,0,2.88.08,4.2.24,3.43.4,6.41.59,8.81.74,2.72.17,5.54.35,5.82.75,0,.04-.07.43-1.74,1.6-4.67,3.26-19.43,4.42-28.25,5.12-1.38.11-2.64.21-3.74.3-8.16.71-23.13,4.37-28.85,9.11-3.28,2.72-8.89,5.9-13.94,5.9-3.45,0-6.08-1.5-7.79-4.4-1.61-3.87-1.64-6.7-1.66-8.97-.03-2.91-.05-5.21-3.25-7.8-.92-1.2-2.09-3.25-1.76-3.94Z"/>
  <path class="cls-1" d="M163.78,115.51c-.86-.46-2.15.38-4.11,1.64-1.54,1-3.45,2.24-5.72,3.2-3.17,1.34-7.29,1.64-11.29,1.94-4.44.33-9.03.67-12.55,2.4-3.96,1.94-11.98,3.13-21.26,4.5-6.12.91-13.06,1.93-19.67,3.32-14.34,3.01-15,7.64-15.98,14.64-.16,1.14-.33,2.32-.57,3.57-.49,2.57-1.49,4.15-2.98,4.68-2.51.9-6.57-1.03-12.39-5.91-2.23-1.87-5.87-2.74-9.73-3.66-8.26-1.97-17.62-4.2-18.85-16.52-1.83-18.35-11.83-25.08-11.93-25.15-.12-.08-.28-.04-.35.07-.08.12-.04.27.07.35,3.42,2.24,10.26,10.3,11.71,24.77,1.26,12.68,11.23,15.05,19.23,16.96,3.8.91,7.39,1.76,9.53,3.56,6.04,5.07,10.14,6.98,12.88,6,1.67-.6,2.79-2.3,3.31-5.06.24-1.26.41-2.45.57-3.59.96-6.8,1.59-11.28,15.59-14.22,6.6-1.38,13.53-2.41,19.64-3.31,9.33-1.38,17.38-2.57,21.41-4.55,3.43-1.69,7.97-2.02,12.37-2.35,4.03-.3,8.2-.61,11.44-1.97,2.31-.98,4.25-2.23,5.8-3.24,1.68-1.09,3-1.95,3.6-1.62.37.2.56.92.57,2.16.04,5.72-23.14,41.68-38.1,43.21-7.69.79-12.22.99-15.62-.07-.5-.16-.98-.3-1.44-.44-2.43-.74-4.36-1.32-6.68-2.69-3.63-2.13-7.79.14-9.94,1.69-.97.69-1.81,2.01-2.79,3.54-2.93,4.59-6.94,10.87-18.47,6.39-5.9-2.29-9.55-4.42-12.47-6.13-4.76-2.78-7.93-4.63-16.23-4.63-.1,0-.21,0-.31,0-.14,0-.25.11-.25.25s.11.25.25.25h0c.1,0,.21,0,.31,0,8.16,0,11.28,1.82,15.97,4.56,2.95,1.72,6.61,3.86,12.55,6.17,2.89,1.12,5.31,1.59,7.38,1.59,6.47,0,9.41-4.59,11.7-8.18.95-1.48,1.76-2.76,2.65-3.4,2.06-1.47,6.01-3.65,9.4-1.66,2.38,1.39,4.42,2.02,6.79,2.74.46.14.94.28,1.44.44,3.48,1.09,8.05.89,15.82.09,8.94-.91,19.56-13.12,25.1-20.32,7.95-10.34,13.47-20.63,13.45-23.4-.01-1.49-.27-2.3-.83-2.6Z"/>
  <path class="cls-1" d="M77.08,168.79c2.57,0,3.78-1.82,5.1-3.81,1.13-1.71,2.3-3.47,4.49-4.43,2.36-1.04,4.84-2.82,7.38-5.3,3.55-3.47,7.43-6.18,11.54-8.07,14.69-6.74,22.05-11.22,21.86-13.3-.05-.61-.26-1.04-.63-1.32-.88-.66-2.51-.36-5.2.15-3.21.61-8.04,1.53-14.34,1.11-17.49-1.17-27.05,3.68-29.24,14.84-1.23,6.31-2.91,9.62-5.42,10.72-2.91,1.28-7.24-.11-14.96-4.82-5.23-3.19-10.97-3.77-16.02-4.28-8-.81-14.32-1.44-14.44-12.11-.2-17.59-9.73-27.02-9.83-27.11-.1-.1-.26-.1-.36,0-.1.1-.09.26,0,.36.09.09,9.48,9.39,9.67,26.76.13,11.12,6.97,11.8,14.9,12.6,5,.5,10.67,1.07,15.81,4.21,7.87,4.8,12.34,6.21,15.42,4.85,2.72-1.2,4.43-4.51,5.71-11.09,2.13-10.86,11.5-15.58,28.71-14.43,6.34.43,11.23-.5,14.46-1.12,2.47-.47,4.1-.78,4.8-.25.25.19.39.5.43.96.16,1.77-7.71,6.43-21.57,12.8-4.16,1.91-8.09,4.66-11.68,8.16-2.49,2.44-4.92,4.18-7.23,5.2-2.32,1.02-3.59,2.93-4.71,4.61-2.17,3.27-3.88,5.84-12.17.49-12.65-8.18-28.68-12.53-33.72-12.56h0c-.14,0-.25.11-.25.25,0,.14.11.25.25.25,4.99.04,20.89,4.36,33.45,12.48,3.56,2.3,5.99,3.18,7.77,3.18Z"/>
  <path class="cls-1" d="M110.48,137.53h-.01c-19.15.99-24.12,8.77-29.04,19.64-1.6,3.53-3.67,5.63-6.15,6.22-3.51.85-6.7-1.65-6.73-1.68-.11-.08-.27-.07-.35.04-.09.11-.07.27.04.35.12.09,2.5,1.97,5.52,1.97.53,0,1.08-.06,1.63-.19,2.64-.63,4.83-2.82,6.5-6.5,4.85-10.72,9.74-18.38,28.61-19.35.14,0,.25-.13.24-.27,0-.13-.12-.24-.25-.24Z"/>
  <path class="cls-1" d="M87.16,155.3c-.07.12-.03.27.09.35.04.02.08.04.13.04.08,0,.17-.04.22-.12.08-.13,7.94-12.89,23.27-13.25.14,0,.25-.12.25-.26,0-.14-.12-.25-.25-.25h0c-15.61.36-23.61,13.36-23.69,13.49Z"/>
  <path class="cls-1" d="M118.46,146.67c-1.68.84-3.46,1.52-4.97,2.63-2.37,1.75-3.61,4.72-1.24,6.72,1.3,1.09,3.16,1.47,5.17,1.47,2.94,0,6.19-.81,8.49-1.36,5.76-1.38,11.27-3.97,15.92-7.59,2.08-1.62,4.06-3.52,5.01-5.88,1.13-2.81.66-5.88-.14-8.69-.55-1.92-1.25-3.83-2.44-5.44-1.19-1.61-2.92-2.93-4.99-3.35-.43-.09-.87-.13-1.31-.13-1.71,0-3.47.64-4.61,1.89-1.26,1.38-1.62,3.24-2.14,4.96-1.89,6.2-6.64,11.71-12.73,14.77ZM131.69,132.05c.09-.29.17-.58.25-.87.41-1.46.81-2.83,1.78-3.89.98-1.08,2.56-1.72,4.23-1.72.41,0,.82.04,1.21.12,1.78.36,3.44,1.48,4.68,3.14,1.24,1.68,1.91,3.7,2.36,5.27.68,2.39,1.31,5.5.16,8.35-.99,2.47-3.24,4.42-4.84,5.66-4.53,3.53-9.97,6.12-15.72,7.5l-.28.07c-2.25.54-5.33,1.28-8.09,1.28-2.14,0-3.76-.45-4.83-1.35-.75-.63-1.11-1.38-1.09-2.24.04-1.23.92-2.63,2.3-3.65,1.04-.77,2.22-1.32,3.46-1.9.48-.22.96-.45,1.43-.68,6.21-3.12,11.07-8.76,13-15.09Z"/>
  <path class="cls-1" d="M196.46,97.57c-2.19-1.43-5.11-1.26-7.24-1.15l-9.68.54c-1.84.1-4.14.23-5.87,1.49-1,.73-1.69,1.95-1.79,3.19-.08.94.21,1.79.8,2.39.1.1.26.1.36,0,.1-.1.1-.26,0-.36-.63-.64-.71-1.44-.66-2,.09-1.08.71-2.18,1.58-2.82,1.61-1.17,3.82-1.3,5.6-1.39l9.68-.54c2.68-.15,5.04-.17,6.93,1.06,3.99,2.6,2.96,8.81,2.54,10.65-2.86,12.77-13.81,23.52-26.64,26.13-1.65.34-3.78.63-5.68-.02-1.64-.57-3.28-2.15-3.23-4.07,0-.14-.11-.25-.25-.26h0c-.14,0-.25.11-.25.24-.06,2.16,1.75,3.93,3.57,4.56.89.31,1.81.42,2.71.42,1.15,0,2.27-.18,3.23-.38,13.02-2.65,24.13-13.56,27.03-26.52.43-1.92,1.5-8.4-2.76-11.18Z"/>
  <path class="cls-1" d="M169.57,130.17c.11,0,.23,0,.34,0,1.5,0,2.96-.55,4.3-1.23,5.62-2.85,9.76-7.94,13.36-13.11,1.6-2.3,3.18-4.77,3.48-7.57.3-2.79-1.09-5.96-3.77-6.79-.48-.15-.96-.21-1.44-.21-1.84,0-3.69.96-5.22,2.08-2.93,2.14-6.55,5.49-8.21,8.78-.76,1.52-.29,2.42-.58,3.99-.34,1.91-1.77,3.49-3.12,4.8-1.88,1.83-3.94,4.32-2.99,6.76.59,1.51,2.24,2.41,3.85,2.5ZM169.06,121.27c1.41-1.37,2.9-3.04,3.26-5.07.12-.64.11-1.18.11-1.66,0-.76,0-1.36.42-2.2,2-3.97,6.67-7.59,8.06-8.6,1.79-1.31,3.45-1.98,4.93-1.98.45,0,.88.06,1.3.19,2.48.76,3.68,3.78,3.42,6.25-.29,2.68-1.84,5.09-3.4,7.33-3.33,4.79-7.5,10.07-13.18,12.95-1.58.8-2.88,1.18-4.07,1.18-.1,0-.21,0-.31,0-1.3-.07-2.87-.78-3.41-2.18-.87-2.23,1.22-4.62,2.87-6.22Z"/>
  <path class="cls-1" d="M173.27,126.01c.27,0,.56-.05.85-.16,4.34-1.62,9.54-8.37,12.87-13.16,1.53-2.2.2-5.37-2.47-5.62-.18-.02-.35-.02-.52-.02-4.29,0-7.54,5-8.44,9.23-.31,1.47-1.41,2.63-2.31,3.88-.29.41-.99,1.14-1.7,1.93-1.41,1.59-.13,3.91,1.73,3.91ZM171.92,122.43l.63-.7c.47-.52.88-.96,1.1-1.27.18-.25.37-.5.56-.75.77-1,1.57-2.04,1.84-3.32.91-4.34,4.14-8.83,7.94-8.83.16,0,.31,0,.47.02,1.03.1,1.91.73,2.36,1.7.48,1.04.39,2.21-.26,3.13-5.07,7.29-9.43,11.78-12.63,12.97-.22.08-.45.13-.67.13-.7,0-1.35-.44-1.66-1.12-.14-.32-.4-1.15.31-1.95Z"/>
  <path class="cls-1" d="M117.65,153.14c.45.62,1.35.83,2.18.9.31.02.62.04.93.04,2.37,0,4.72-.71,6.8-1.74,2.36-1.17,4.43-2.74,6.48-4.31,1.96-1.49,3.91-2.99,5.88-4.48,1.15-.87,2.68-1.64,3.6-2.71.95-1.11.92-2.52.73-3.86-.13-.9-.3-1.93-.7-2.77-.57-1.2-2.37-3.09-4.54-3.09-.69,0-1.42.19-2.16.65-1.1.68-1.89,1.67-2.29,2.79-.41,1.13-.54,2.31-.82,3.47-1.33,5.44-6.22,10.06-12.22,11.53-1.05.26-2.16.44-3.04,1.02-.87.58-1.4,1.74-.81,2.55ZM121.09,150.17l.53-.12c6.16-1.51,11.22-6.29,12.59-11.9.1-.41.18-.83.27-1.25.15-.76.29-1.47.54-2.17.38-1.05,1.1-1.92,2.09-2.54.61-.38,1.25-.58,1.9-.58,1.89,0,3.56,1.67,4.09,2.8.36.76.53,1.71.66,2.63.17,1.22.22,2.49-.62,3.46-.57.67-1.43,1.23-2.27,1.78-.44.29-.87.57-1.25.86-1.31.99-2.61,1.98-3.91,2.98l-1.96,1.5c-2,1.53-4.07,3.1-6.4,4.26-2.23,1.11-4.51,1.69-6.58,1.69-.3,0-.59-.01-.89-.04-.93-.07-1.54-.31-1.81-.69-.14-.19-.19-.43-.14-.69.08-.43.39-.87.82-1.16.65-.44,1.48-.63,2.35-.83Z"/>
  <path class="cls-1" d="M61.82,49.56c1.75,0,3.2-1.46,3.2-3.35s-1.46-3.27-3.2-3.27-3.2,1.46-3.2,3.27,1.38,3.35,3.2,3.35Z"/>
  <path class="cls-1" d="M65.02,55.24c0-1.67-1.38-3.06-3.13-3.06h-3.86v.07s1.82.8,1.82,3.2v29.19c0,2.4-1.82,3.2-1.82,3.2v.07h8.81v-.07s-1.82-.8-1.82-3.2v-29.41Z"/>
  <path class="cls-1" d="M100.45,87.92c5.24,0,10.26-1.6,14.05-5.39l-.44-.07c-3.35,3.2-8.44,4.51-13.61,4.51s-10.48-3.57-13.03-9.1c-2.11-5.53.66-13.9,11.5-10.99,8.88,2.4,12.67.51,13.9-2.77,2.18-5.68-5.9-11.94-12.81-11.94-11.06,0-19.51,7.86-19.51,17.76s8.95,17.98,19.94,17.98ZM93.09,54.51c8.15-4.08,17.54.29,15.21,7.86-.87,2.84-4.22,4.95-9.24,3.57-8.44-2.33-12.37,1.89-13.25,6.77-.07-.87-.15-1.82-.15-2.77,0-6.99,2.77-13.1,7.43-15.43Z"/>
  <path class="cls-1" d="M124.05,87.85s-1.82-.8-1.82-3.2v-16.89c.07-4.15,3.71-8.59,6.48-11.06,6.19-5.46,11.72,0,12.52,3.35l3.71-4.15c-1.24-2.11-4.88-3.71-8.73-3.71-7.35,0-13.39,9.39-14.12,11.28l.14-8.15c0-1.75-1.38-3.13-3.13-3.13h-3.86v.15s1.82.73,1.82,3.2v29.11c0,2.4-1.82,3.2-1.82,3.2v.07h8.81v-.07Z"/>
  <path class="cls-1" d="M156,87.85s-1.82-.8-1.82-3.2v-16.89c.07-4.15,3.71-8.59,6.48-11.06,6.19-5.46,11.72,0,12.52,3.35l3.71-4.15c-1.24-2.11-4.88-3.71-8.73-3.71-7.35,0-13.39,9.39-14.12,11.28l.15-8.15c0-1.75-1.38-3.13-3.13-3.13h-3.86v.15s1.82.73,1.82,3.2v29.11c0,2.4-1.82,3.2-1.82,3.2v.07h8.81v-.07Z"/>
  <path class="cls-1" d="M206.53,84.64s-.07-13.32,0-16.67c.51-19.87-26.86-17.83-28.24-11.14-.58,2.77,2.55,4.44,5.6,5.1,2.98.65,5.68.87,5.68,2.26,0,3.28-16.67-.51-17.03,12.16-.22,6.11,5.24,12.96,14.63,11.86,6.26-.73,11.94-6.19,14.19-11.35v8.01c.07,1.67,1.46,3.06,3.13,3.06h3.86v-.07s-1.82-.8-1.82-3.2ZM201.43,72.13h-.07c0,6.84-7.79,14.77-14.19,15.21-3.42.22-10.48-1.38-9.46-11.14.94-9.9,12.45-7.57,12.74-11.79.22-2.33-3.2-2.55-6.19-3.28-2.69-.65-5.46-1.67-4.95-4.22.73-4.08,22.05-9.75,22.13,10.84v4.37Z"/>
  <path class="cls-1" d="M70.54,79.65c0,6.18,2.84,8.48,7.55,8.48,1.53,0,2.76,0,4.36-.51v-1.02c-.83.13-1.59.19-2.29.19-3.25,0-4.52-1.59-4.52-4.84v-19.69c0-7.9,5.1-8.47,8.73-8.47v-1.02c-2.68,0-6.82.38-8.73,4.27v-14.46h-.64c-1.72,4.84-2.35,7.07-6.11,10.19v.96h1.66v25.93Z"/>
  <path class="cls-1" d="M11.09,48.28v-1.62s18.32,41.24,18.32,41.24c.02.01.04.02.06.04h7.56c.06,0,.1-.08.04-.11-.82-.56-4.03-3.5-6.85-11.21-.35-.96-.44-2.56-.16-3.55.87-3.05,2.19-6.59,5.41-9.5.87-.79,1.79-1.51,2.61-2.27,3.32-3.06,8.49-7.23,10.7-17.36.02-.07-.12,37.73-.12,37.73-.14,3.24-1.78,5.68-2.14,6.18-.03.04,0,.09.06.09h9.46c.06,0,.09-.07.05-.11-.46-.42-1.99-2.11-2.12-6.08l.07-37.08c0-4.12,3.58-7.06,4.54-7.77.07-.05.03-.17-.06-.17h-8.19s-2.35.01-2.35.01v.44c.31,11.7-4.59,18.16-10.62,23.46-.86.76-1.77,1.51-2.66,2.32-3.29,2.98-5.01,6.84-5.91,9.95-.06,0-.06,0-.12,0L12.63,37.07s-.04-.02-.06-.04H4.33c-.08,0-.11.09-.05.13.86.6,4.12,3.1,4.14,6.62v35.77c0,5.98-1.12,7.87-1.45,8.3-.03.04,0,.1.05.1h5.04s.08-.04.06-.09c-.2-.43-1.03-2.54-1.04-8.42v-31.16Z"/>
</svg>